<?xml version="1.0" standalone="no"?>
<!DOCTYPE svg PUBLIC "-//W3C//DTD SVG 20010904//EN"
 "http://www.w3.org/TR/2001/REC-SVG-20010904/DTD/svg10.dtd">
<svg version="1.0" xmlns="http://www.w3.org/2000/svg"
 width="1890.000000pt" height="1890.000000pt" viewBox="0 0 1890.000000 1890.000000"
 preserveAspectRatio="xMidYMid meet">
<metadata>
Created by potrace 1.11, written by Peter Selinger 2001-2013
</metadata>
<g transform="translate(0.000000,1890.000000) scale(0.100000,-0.100000)"
fill="#000000" stroke="none">
<path d="M0 9450 l0 -9450 9450 0 9450 0 0 9450 0 9450 -9450 0 -9450 0 0
-9450z m6001 2387 c18 -12 44 -38 56 -57 l23 -34 -2 -1640 -3 -1641 -23 -108
c-140 -657 -632 -1147 -1285 -1279 -96 -20 -142 -23 -322 -23 -180 1 -225 4
-315 24 -555 119 -1002 491 -1200 998 -44 112 -50 173 -24 230 39 81 148 117
231 75 47 -24 61 -45 92 -132 60 -168 161 -329 290 -464 186 -193 408 -317
671 -373 119 -25 391 -25 510 0 268 58 485 175 672 364 181 184 290 384 351
648 21 89 21 109 27 1712 l5 1622 21 28 c55 75 155 97 225 50z m3437 -34 c35
-28 87 -149 892 -2064 470 -1119 860 -2045 865 -2058 9 -20 91 166 599 1371
324 766 604 1425 622 1464 40 85 89 125 162 131 58 5 123 -26 162 -77 15 -19
296 -676 625 -1460 329 -784 601 -1431 605 -1438 4 -8 378 870 865 2030 472
1124 867 2055 877 2071 44 62 137 83 214 48 55 -25 87 -71 92 -135 4 -49 -36
-147 -933 -2276 -515 -1224 -944 -2241 -954 -2260 -10 -19 -37 -50 -60 -67
-36 -28 -51 -33 -99 -33 -76 0 -114 27 -151 105 -16 33 -298 700 -627 1483
-328 782 -601 1419 -604 1415 -4 -5 -280 -656 -615 -1448 -334 -792 -614
-1455 -623 -1473 -22 -48 -66 -75 -132 -80 -112 -8 -136 19 -238 263 -43 105
-469 1117 -945 2250 -950 2257 -896 2118 -844 2196 56 83 169 103 245 42z"/>
</g>
</svg>
